<?xml version="1.0"?>
<svg xmlns="http://www.w3.org/2000/svg" viewBox="0 0 50 50">
    <path style="text-indent:0;text-align:start;line-height:normal;text-transform:none;block-progression:tb;-inkscape-font-specification:Sans" d="M 4 10 C 1.8026661 10 0 11.802666 0 14 L 0 38 C 0 40.197334 1.8026661 42 4 42 L 46 42 C 48.197334 42 50 40.197334 50 38 L 50 14 C 50 11.802666 48.197334 10 46 10 L 4 10 z M 4 12 L 46 12 C 47.116666 12 48 12.883334 48 14 L 48 38 C 48 39.116666 47.116666 40 46 40 L 4 40 C 2.8833339 40 2 39.116666 2 38 L 2 14 C 2 12.883334 2.8833339 12 4 12 z M 8 18 L 8 34 L 12 34 L 12 23.34375 L 17 30 L 22 23.34375 L 22 34 L 26 34 L 26 18 L 22 18 L 17 24.71875 L 12 18 L 8 18 z M 35 18 L 35 26 L 30 26 L 37 34 L 44 26 L 39 26 L 39 18 L 35 18 z" overflow="visible" font-family="Sans"/>
</svg>
